<?xml version="1.0" standalone="no"?>
<!DOCTYPE svg PUBLIC "-//W3C//DTD SVG 20010904//EN"
 "http://www.w3.org/TR/2001/REC-SVG-20010904/DTD/svg10.dtd">
<svg version="1.0" xmlns="http://www.w3.org/2000/svg"
 width="500.000000pt" height="500.000000pt" viewBox="0 0 500.000000 500.000000"
 preserveAspectRatio="xMidYMid meet">

<g transform="translate(0.000000,500.000000) scale(0.100000,-0.100000)"
fill="#000000" stroke="none">
<path d="M2290 4849 c-260 -30 -557 -137 -770 -276 -102 -67 -239 -183 -332
-281 -514 -540 -635 -1371 -297 -2036 22 -43 243 -367 491 -720 248 -352 479
-680 512 -728 185 -266 477 -680 516 -732 41 -55 49 -61 85 -64 32 -2 45 2 62
20 11 13 164 228 340 478 176 250 362 516 414 590 53 74 171 243 264 375 93
132 242 345 333 474 224 318 297 476 359 771 23 110 26 149 27 330 0 220 -10
306 -60 489 -192 708 -803 1229 -1539 1311 -105 12 -298 11 -405 -1z m393
-155 c93 -7 290 -54 394 -94 433 -166 778 -503 947 -924 142 -352 156 -748 40
-1117 -61 -196 -105 -267 -578 -939 -246 -349 -567 -807 -714 -1017 -147 -210
-269 -382 -272 -382 -3 0 -21 23 -40 52 -37 53 -399 570 -805 1147 -661 939
-641 909 -710 1110 -92 267 -114 592 -59 860 119 574 567 1071 1119 1239 233
71 401 87 678 65z"/>
<path d="M2299 4064 c-350 -69 -654 -339 -768 -681 -75 -223 -62 -514 33 -727
l26 -59 -51 -259 c-38 -191 -49 -262 -41 -270 9 -9 81 0 276 34 l265 46 84
-34 c129 -52 222 -69 377 -69 138 1 206 11 320 47 301 96 547 342 651 651 82
243 60 547 -56 777 -95 188 -270 363 -460 457 -73 37 -199 78 -279 92 -80 15
-295 12 -377 -5z m448 -69 c530 -142 840 -700 677 -1218 -83 -263 -273 -479
-525 -597 -235 -109 -567 -108 -800 5 l-46 22 -248 -44 c-136 -24 -249 -43
-250 -41 -2 2 19 111 45 243 l48 240 -28 65 c-67 156 -84 253 -77 441 5 143
18 204 68 325 63 152 193 316 325 410 117 84 309 159 454 178 83 10 266 -4
357 -29z"/>
<path d="M2246 3447 c-17 -13 -75 -198 -76 -243 0 -24 55 -52 150 -75 71 -17
286 -17 365 0 84 19 158 57 151 79 -3 9 -17 59 -30 111 -14 51 -32 104 -41
117 -23 36 -83 32 -174 -11 -40 -19 -81 -35 -91 -35 -10 0 -51 16 -91 35 -77
37 -133 44 -163 22z"/>
<path d="M2025 3184 c-39 -13 -71 -24 -72 -24 -1 0 -18 -14 -38 -31 -39 -35
-47 -78 -20 -117 21 -29 87 -67 166 -95 81 -28 88 -33 82 -56 -8 -33 16 -96
51 -130 35 -34 92 -49 140 -37 41 10 95 64 102 101 8 46 24 57 75 53 40 -3 44
-5 50 -37 20 -100 139 -153 219 -98 50 33 72 70 78 126 l4 50 52 17 c80 26
162 71 185 101 52 65 2 137 -127 179 -37 12 -68 21 -68 20 -1 0 3 -25 9 -55
11 -53 11 -54 -18 -77 -35 -28 -147 -70 -224 -84 -81 -15 -272 -12 -359 5 -91
19 -218 77 -227 105 -3 10 -1 38 5 61 6 22 10 43 8 44 -2 2 -35 -7 -73 -21z"/>
</g>
</svg>
